# xmcd
#
# Track frame offsets:
#	150
#	12982
#	31490
#	42915
#	56477
#	71357
#	86280
#	103955
#	122782
#	136490
#	154980
#	167372
#	186570
#	199160
#	213117
#	227315
#
# Disc length: 3273 seconds
#
# Revision: 5
# Processed by: cddbd v1.5.2PL0 Copyright (c) Steve Scherf et al.
# Submitted via: EasyCDDAExtractor 16.0.8.1
#
DISCID=d60cc710
DTITLE=Various Artist - Ultimate Country Love Songs - CD'2
DYEAR=1998
DGENRE=Country
TTITLE0=Alabama - I'm In A Hurry (And Don't Know Why)
TTITLE1=John Michael Montgomery - Rope The Moon
TTITLE2=Patty Loveless - Timber I'm Falling In Love
TTITLE3=John Anderson - Money In The Bank
TTITLE4=Diamond Rio - Meet Me In The Middle
TTITLE5=Lorrie Morgan - I Didn't Know My Own Strength
TTITLE6=Clint Black - State Of Mind
TTITLE7=Mark Chesnutt - Almost Goodbye
TTITLE8=Tracy Byrd - Watermelon Crawl
TTITLE9=Vince Gill - Pocket Full Of Gold
TTITLE10=Alan Jackson - Dallas
TTITLE11=Blackhawk - I'm Not Strong Enough To Say No
TTITLE12=Aaron Tippin - There Ain't Nothin' Wrong With The Radio
TTITLE13=Lonestar - Heartbroke Every Day
TTITLE14=Martina McBride - Life #9 (Single Edit Version)
TTITLE15=Randy Travis - Hard Rock Bottom Of Your Heart
EXTD=
EXTT0=
EXTT1=
EXTT2=
EXTT3=
EXTT4=
EXTT5=
EXTT6=
EXTT7=
EXTT8=
EXTT9=
EXTT10=
EXTT11=
EXTT12=
EXTT13=
EXTT14=
EXTT15=
PLAYORDER=
